PathFileType	4	(X/Y/Z)	48_2_60_p1_0-305.trc
DataRate	CameraRate	NumFrames	NumMarkers	Units	OrigDataRate	OrigDataStartFrame	OrigNumFrames
56.0	56.0	4	27	m	56.0	0	306
Frame#	Time	RHip			RKnee			RAnkle			RBigToe			RSmallToe			RHeel			LHip			LKnee			LAnkle			LBigToe			LSmallToe			LHeel			Neck			Head			Nose			RShoulder			RElbow			RWrist			RThumb			RIndex			RPinky			LShoulder			LElbow			LWrist			LThumb			LIndex			LPinky			
		X1	Y1	Z1	X2	Y2	Z2	X3	Y3	Z3	X4	Y4	Z4	X5	Y5	Z5	X6	Y6	Z6	X7	Y7	Z7	X8	Y8	Z8	X9	Y9	Z9	X10	Y10	Z10	X11	Y11	Z11	X12	Y12	Z12	X13	Y13	Z13	X14	Y14	Z14	X15	Y15	Z15	X16	Y16	Z16	X17	Y17	Z17	X18	Y18	Z18	X19	Y19	Z19	X20	Y20	Z20	X21	Y21	Z21	X22	Y22	Z22	X23	Y23	Z23	X24	Y24	Z24	X25	Y25	Z25	X26	Y26	Z26	X27	Y27	Z27	
0	0.0	0.17941572277733758	0.3770801977920004	0.6649704328016547	0.16475216672568554	0.5176376957097458	1.089005200156204	0.1595993078626932	0.6769201272610872	1.5285629067735225	0.09777897581653396	0.49265507986232876	1.5671855471531477	0.17023901855335	0.49832855982063606	1.5686252544261359	0.14166776593484093	0.7889633965340951	1.592681369019222	-0.04290756648803694	0.4274720016914607	0.654189060137861	-0.047082864980116	0.6015702439698438	1.0952389892129872	-0.0497406037334971	0.6725709198069508	1.4885993335835443	-0.06336002496379015	0.46690102685295387	1.517930681094502	-0.11903927042969184	0.5416022171931604	1.5370412649488454	-0.03612240749094522	0.7184863477589666	1.5537855736042905	0.11539133067176018	0.388037790880339	-0.009128657525217717	0.12938121489373858	0.3160824490662285	-0.26749747629484766	0.11086544275523053	0.2152727368705141	-0.11661648299020695	0.2809189073191986	0.3601042937916151	0.127900228331911	0.28687756935589437	0.3274632141797265	0.3977719097345401	0.12429001300633101	0.18733603881197886	0.571520244212659	0.04874547383699369	0.1866375715577316	0.6418174802837783	0.027424191669139158	0.21255866828031686	0.673891752265985	0.03195023326651018	0.2143369796437757	0.6753628213945971	-0.07353648369327039	0.42066814703702554	0.07402673488560131	-0.13204246347454332	0.358281585772456	0.3477452006174264	-0.006004433474233952	0.2400044127714439	0.5447835408739781	0.10692010288805212	0.21386307314806127	0.610010710975699	0.10595861249175968	0.2307208184001387	0.6461675675564728	0.041058092639212215	0.1888133080292324	0.6811569105163058
1	0.017857142857142856	0.17952467520100368	0.3766774443693465	0.6646116195017636	0.1639607095189216	0.5157722199736614	1.0843432933184143	0.15415856564392358	0.6626688821377161	1.521841749637988	0.09276576337199069	0.480176898871659	1.5602458891815505	0.16749111109387468	0.4696790811226439	1.5547445114376839	0.1416517472485565	0.7886338132847432	1.5926181934543824	-0.04378828541576838	0.400839230309256	0.641932612731146	-0.05151860195999714	0.599777445334788	1.0942350300055594	-0.048459254092271024	0.6718304265430013	1.4841519328806494	-0.06341692447732887	0.4666885307651128	1.5178377372742875	-0.11908930976316104	0.5416264955901596	1.5371625586434525	-0.031215962564006428	0.732726370764274	1.5597824970660406	0.11539613601791461	0.388072956454395	-0.009164051382185888	0.1295616901462572	0.3156002168284526	-0.2676740144798074	0.11084623973624838	0.21527522319289527	-0.11660961353319033	0.28052471813231383	0.3592148768083929	0.12455149540874928	0.28682841998008624	0.3273101942623058	0.39765163101541545	0.11740687583219368	0.1983951652314606	0.5653037649898188	0.04587721305496191	0.19808596214596746	0.6535498462159707	0.028350334664297636	0.23657920249211736	0.6857876330628841	0.03342822442978969	0.2376587980725962	0.6763668318757284	-0.06914635217432104	0.42318167440185495	0.07749418875689959	-0.1281077755149974	0.36000915086394586	0.3442692670950764	0.0010179284443248868	0.229122556243945	0.5432677035652412	0.10400324222102761	0.22633922799991837	0.6199000492274517	0.10335224728839076	0.2427573811397206	0.6495756137262065	0.038642573654510785	0.20041703491890878	0.6833627323355448
2	0.03571428571428571	0.1794952510580054	0.3762258803966365	0.6679600181856572	0.1647645335395195	0.5180968380966766	1.0893660852843015	0.15956708242252735	0.6766089685569464	1.5284852516450156	0.09257955401200178	0.4799455606120422	1.5603031386800732	0.16496363523119778	0.48534766013012964	1.5623445993114242	0.140581129711457	0.7895224360892913	1.5976656592562937	-0.04375414580093979	0.4003720049129808	0.645621991995497	-0.04703940753985597	0.6013861857462875	1.0950146385640327	-0.04841172856430631	0.6718381908223168	1.4841764090532787	-0.06342211073562916	0.4666115512847183	1.5177424999186984	-0.11904328627359771	0.5415318767294994	1.537015948187297	-0.031173623943130953	0.7327113571952288	1.5599074689543746	0.1154175862753762	0.38816542746424787	-0.00915116555088221	0.12950665831367747	0.3164844780535665	-0.2641917602218829	0.1108935783344728	0.21529018455911914	-0.11668925253168802	0.28045110916537375	0.3592667819678704	0.12101143468629202	0.28634339006495846	0.32732378006757706	0.40090589313080355	0.11256478420548567	0.2229713299615627	0.565287671294996	0.04357190732891554	0.22362268843592192	0.6734577620950605	0.018039155313426918	0.2635650679885634	0.6959381276546626	0.029649646497616606	0.24966013287132294	0.6821739344072405	-0.0692643624028378	0.42202972952952666	0.07398695482443407	-0.12822434365513136	0.3596339532303348	0.3443036579336053	0.0010932093975240017	0.2291494953174615	0.5432557813288239	0.10445152527969746	0.22723360527461964	0.6235125894073215	0.10356456751174821	0.24304928738166792	0.6543563175910416	0.03443205396422333	0.18972771665309843	0.6777316112803529
3	0.05357142857142857	0.17946970285533168	0.376241775377586	0.667918299351101	0.15878975547505622	0.5036469352656223	1.080667347899557	0.15945056759046822	0.676588893490278	1.5283955374983043	0.08787108869643262	0.4676273921766843	1.5536635309559725	0.16513408609178631	0.4853055013399149	1.5620316891156225	0.14049233651521853	0.7895912973499296	1.5975072417721707	-0.043771544019881196	0.40028865305885325	0.6455913722018208	-0.042758383560679944	0.6144900337626137	1.0994327453688095	-0.04965072024538446	0.6724575032420588	1.4886560895338299	-0.06342619617585193	0.4666229555767961	1.517804085381579	-0.11906161826903533	0.5415810230873811	1.5370695996463317	-0.03131206109338649	0.7329968009931102	1.5603999109788582	0.11541018868801356	0.38815990799715044	-0.009026820717101931	0.1295019360959019	0.31660390406065164	-0.2641391603256563	0.11089683946752271	0.2152731388616345	-0.11667996239012116	0.28036840313649375	0.3590777862463454	0.12098613324676942	0.28626607043167873	0.32699041046147853	0.400779327325564	0.1106891301806511	0.20080523449587206	0.5616632681403578	0.03559963096414182	0.2117256030346674	0.6622396336527661	0.017743600900298896	0.26335856829841264	0.6956748390884446	0.025126360666212297	0.23813027614898857	0.6798842386715934	-0.0692761746415946	0.4220769418642231	0.07402696817463363	-0.12811653843570633	0.359937991317702	0.3443022147618327	0.0010503301153622327	0.22924052846202103	0.5432102017105852	0.09855516488021289	0.22997153536660384	0.623894200472959	0.09838171692267314	0.23237434595848055	0.6508137850843569	0.03583598202731998	0.2119709737163754	0.6821386884463376
